Coordinates
version=1
nRows=16
nColumns=36
inDegrees=yes

Units are S.I. units (second, meters, Newtons, ...)
If the header above contains a line with 'inDegrees', this indicates whether rotational values are in degrees (yes) or radians (no).

endheader
time	pelvis_tilt	pelvis_list	pelvis_rotation	pelvis_tx	pelvis_ty	pelvis_tz	hip_flexion_r	hip_adduction_r	hip_rotation_r	knee_angle_r	knee_angle_r_beta	ankle_angle_r	subtalar_angle_r	mtp_angle_r	hip_flexion_l	hip_adduction_l	hip_rotation_l	knee_angle_l	knee_angle_l_beta	ankle_angle_l	subtalar_angle_l	mtp_angle_l	lumbar_extension	lumbar_bending	lumbar_rotation	arm_flex_r	arm_add_r	arm_rot_r	elbow_flex_r	pro_sup_r	arm_flex_l	arm_add_l	arm_rot_l	elbow_flex_l	pro_sup_l
      0.00000000	     -0.42518592	      0.20428854	     -2.99761685	      0.20021723	      1.22692028	     -0.56519368	     -2.15137567	     -0.67026305	     -3.96261097	      2.86224403	      0.04995558	      2.24933531	     -8.28669771	     -6.36629334	     -1.40765285	     -1.04604821	     -3.38484439	      5.27352006	      0.09204029	      4.62381111	     -4.19734213	     -6.36629334	     -8.54648546	     -1.71231612	      0.41413926	     -0.51965849	    -12.14179499	     13.24576761	     24.38043412	     77.72364701	     -1.51370365	    -15.32549277	     14.54698607	     31.96970538	     79.22406252
      0.01666670	     -0.04724929	      0.23619318	     -3.12147960	      0.19983434	      1.22798705	     -0.56564664	     -2.86088002	     -0.85170007	     -3.71173042	      2.21217135	      0.03860967	      2.72853167	     -7.57735351	     -6.44337712	     -2.39219813	     -0.81108458	     -3.77406236	      3.63545947	      0.06345074	      3.65097370	     -5.32772227	     -6.44337712	     -9.30257454	     -1.97964128	      0.65510607	     -0.15631566	    -11.80841967	     13.32181062	     24.03522266	     77.40480894	     -1.80526215	    -15.02612148	     14.56029822	     31.08267947	     78.61465537
      0.03333330	     -0.92217424	      0.39713838	     -3.02713325	      0.20048225	      1.22801439	     -0.56458159	     -2.58675713	     -0.77631193	     -3.18678750	      1.23923619	      0.02162875	      2.01730864	     -7.98640985	     -6.65213104	     -1.84016084	     -0.73490429	     -2.90394612	      3.06954224	      0.05357362	      3.45149432	     -4.84832766	     -6.65213104	     -8.26714670	     -2.17411636	      0.68415012	     -0.57652295	    -11.69530840	     13.62895162	     23.51896367	     75.83096061	     -1.72154650	    -15.03419079	     14.80575128	     30.01087909	     76.86916859
      0.05000000	     -2.41170925	      0.51618260	     -3.06559112	      0.20113664	      1.22657104	     -0.56479999	     -1.11429229	     -0.82049779	     -2.91461657	      1.15683577	      0.02019059	      2.14684473	     -8.10155785	     -6.91147759	     -0.47926821	     -0.67860130	     -2.79370780	      2.92249333	      0.05100713	      2.99408988	     -4.78475129	     -6.91147759	     -6.25077769	     -2.21548528	      0.72033411	     -0.74023303	    -11.50367068	     14.49072063	     22.32415398	     74.25829304	     -1.84739439	    -14.96268967	     15.97337006	     28.89468005	     75.35846291
      0.06666670	     -3.16103726	      0.68745528	     -3.41988900	      0.20175729	      1.22636417	     -0.56389933	     -0.28515271	     -0.94137334	     -2.37699359	      1.15812932	      0.02021317	      2.28339813	     -8.28506623	     -7.06579538	      0.13994996	     -0.52842212	     -2.97347120	      2.96256783	      0.05170656	      3.12921234	     -4.66244160	     -7.06579538	     -5.25065922	     -2.39138735	      1.04178803	     -1.03917026	    -11.41096083	     14.82476901	     22.19457996	     72.59266683	     -2.11088321	    -14.84239191	     16.01309966	     28.72791226	     73.65515166
      0.08333330	     -4.08759056	      0.82918137	     -3.77197586	      0.20222877	      1.22597095	     -0.56394568	      0.87091480	     -1.00610231	     -1.44199886	      1.45304281	      0.02536038	      1.99364002	     -9.42916997	     -7.15039303	      1.07728401	     -0.42433167	     -3.44508644	      3.15744584	      0.05510783	      3.59409779	     -4.16867101	     -7.15039303	     -3.96934344	     -2.47826579	      1.34675984	     -1.07250982	    -11.29856683	     15.33317482	     21.67736237	     71.58993970	     -2.49307682	    -14.71872608	     16.21229681	     28.31115513	     72.73247963
      0.10000000	     -4.54799828	      0.92962366	     -3.99142957	      0.20284649	      1.22576386	     -0.56325264	      1.49806304	     -1.07044103	     -0.99444905	      1.69091759	      0.02951208	      2.00792128	     -9.74223190	     -7.23913380	      1.51284725	     -0.34317356	     -3.64045532	      3.27088734	      0.05708775	      3.82457444	     -4.05093067	     -7.23913380	     -3.46225898	     -2.53524850	      1.46328487	     -1.44037041	    -11.29172519	     15.46630384	     22.19286542	     69.69197668	     -2.96161386	    -14.70508419	     15.97164262	     28.81367808	     70.71442049
      0.11666670	     -5.27868877	      1.04859333	     -4.13974096	      0.20279111	      1.22522885	     -0.56363016	      2.42965166	     -1.14043446	     -0.48529032	      1.95894142	      0.03418998	      1.88908748	    -10.22359497	     -7.28651905	      2.28426067	     -0.27658008	     -4.14631999	      3.40406569	      0.05941215	      4.17717843	     -3.49933124	     -7.28651905	     -2.42355486	     -2.58231302	      1.56707989	     -1.51116314	    -11.19841596	     16.27494329	     21.64181251	     68.91788795	     -3.27709507	    -14.63126064	     16.20042168	     28.52010759	     69.96422401
      0.13333330	     -5.56401161	      1.07769443	     -4.15012291	      0.20305249	      1.22497824	     -0.56317271	      2.81314726	     -1.14135008	     -0.16598014	      2.05969411	      0.03594844	      1.87482358	    -10.38888708	     -7.31670870	      2.54184028	     -0.26767566	     -4.27353054	      3.41837779	      0.05966195	      4.22499315	     -3.38710274	     -7.31670870	     -2.20098577	     -2.59172418	      1.55349293	     -1.82545708	    -11.15957266	     16.34534802	     22.26701310	     67.91863815	     -3.63453946	    -14.68723807	     16.01432801	     29.13841316	     68.89213537
      0.15000000	     -5.82057634	      1.06810713	     -4.07232843	      0.20274976	      1.22479317	     -0.56382605	      3.13918494	     -1.10129536	     -0.11400636	      2.17623602	      0.03798248	      2.08337267	    -10.09900788	     -7.34593313	      2.87013552	     -0.30673578	     -4.50286900	      3.59705551	      0.06278046	      4.40836252	     -3.10264052	     -7.34593313	     -1.86936605	     -2.54764722	      1.47647806	     -1.88688640	    -11.06345448	     16.64392803	     22.13658460	     66.89674849	     -3.78313649	    -14.60999521	     15.93112921	     29.04037534	     67.82564610
      0.16666670	     -6.03475415	      1.02608220	     -3.92105817	      0.20318578	      1.22745922	     -0.56333708	      3.36290390	     -1.01739366	      0.22322372	      2.18544740	      0.03814325	      1.95001318	    -10.46506194	     -7.37604357	      3.15570681	     -0.38193365	     -4.62929570	      3.73140670	      0.06512533	      4.45373843	     -3.01990281	     -7.37604357	     -1.63705232	     -2.49088425	      1.33310016	     -1.82893534	    -11.00595520	     17.01032398	     22.24893994	     65.64699527	     -3.91183431	    -14.61681105	     16.07716497	     29.27703641	     66.56353782
      0.18333330	     -6.02868257	      1.00088819	     -3.82335587	      0.20205576	      1.22443320	     -0.56423183	      3.35849851	     -0.96427987	      0.31266533	      2.21497302	      0.03865857	      2.24625870	    -10.15661816	     -7.39797623	      3.22369637	     -0.41267374	     -4.80596750	      3.88551134	      0.06781497	      4.47570652	     -3.11879163	     -7.39797623	     -1.77024191	     -2.45827018	      1.23393084	     -1.88549003	    -11.10931119	     17.11403157	     22.78808973	     64.73662840	     -4.07235906	    -14.68817113	     16.05792216	     29.66902781	     65.61280446
      0.20000000	     -5.96280986	      0.95606306	     -3.68495511	      0.21021728	      1.22453509	     -0.56690195	      3.17722615	     -0.91367848	      0.32803581	      2.27430829	      0.03969417	      2.33080103	    -10.23339978	     -7.39830108	      3.11112594	     -0.42974326	     -4.96818008	      3.92943619	      0.06858160	      4.42189326	     -3.16761757	     -7.39830108	     -1.66386785	     -2.36819344	      1.20064939	     -2.06180124	    -11.14558708	     17.12718564	     22.73817348	     64.69433854	     -4.32742793	    -14.62865181	     16.10846447	     29.58811765	     65.57868212
      0.21666670	     -5.96756239	      0.89396654	     -3.59575854	      0.20144210	      1.22443619	     -0.56454368	      3.12446569	     -0.81621746	      0.32442739	      2.29855639	      0.04011738	      2.41415533	    -10.30060720	     -7.39865365	      3.18719858	     -0.50724465	     -5.05959545	      4.00429069	      0.06988806	      4.44585734	     -3.20464744	     -7.39865365	     -1.71273381	     -2.29158867	      1.19489409	     -1.88012831	    -11.11594958	     17.13973380	     22.81713196	     64.64491653	     -4.34258012	    -14.65568890	     16.14129422	     29.55116797	     65.53313185
      0.23333330	     -5.96289025	      0.88927961	     -3.52208833	      0.20929410	      1.22432541	     -0.56718196	      3.03656515	     -0.83282639	      0.30423135	      2.34043563	      0.04084831	      2.43864438	    -10.33128223	     -7.39876745	      3.15645441	     -0.48325789	     -5.08555889	      4.01322963	      0.07004407	      4.47112306	     -3.21447863	     -7.39876745	     -1.72397942	     -2.23125749	      1.18955563	     -1.92156165	    -11.14172755	     17.14061620	     22.80274046	     64.62553982	     -4.45807759	    -14.61782052	     16.16811916	     29.51615830	     65.51699828
      0.25000000	     -5.72262977	      0.81751565	     -3.41889437	      0.20899651	      1.22753399	     -0.56768618	      2.63363844	     -0.80240593	      0.20887138	      2.28592069	      0.03989684	      2.61166004	    -10.40273963	     -7.44762501	      2.80340284	     -0.50210885	     -5.00796001	      3.91783673	      0.06837915	      4.56584543	     -3.05794679	     -7.44762501	     -1.95287223	     -2.03852199	      0.82356876	     -1.65228684	    -11.28477515	     18.62692938	     22.54697206	     61.91881673	     -4.65899688	    -14.67615319	     17.28627182	     29.35585202	     62.45995383
